<?xml version="1.0" standalone="no"?>
<!DOCTYPE svg PUBLIC "-//W3C//DTD SVG 20010904//EN"
 "http://www.w3.org/TR/2001/REC-SVG-20010904/DTD/svg10.dtd">
<svg version="1.0" xmlns="http://www.w3.org/2000/svg"
 width="76.000000pt" height="103.000000pt" viewBox="0 0 76.000000 103.000000"
 preserveAspectRatio="xMidYMid meet">

<g transform="translate(0.000000,103.000000) scale(0.100000,-0.100000)"
fill="#000000" stroke="none">
<path d="M0 881 c0 -110 3 -151 13 -154 10 -4 10 -6 0 -6 -10 -1 -13 -32 -13
-121 0 -100 3 -120 15 -120 13 0 15 35 15 255 l0 255 59 0 59 0 50 -77 c27
-43 66 -104 86 -136 26 -40 41 -55 49 -49 7 5 23 5 37 1 23 -7 23 -7 -7 -8
-18 -1 -33 -5 -33 -9 0 -12 259 -422 266 -422 2 0 4 47 4 105 l0 105 -35 0
-35 0 2 53 2 52 3 -47 c4 -46 6 -48 34 -48 l29 0 0 104 0 105 -32 4 -33 4 31
1 c39 2 44 22 44 163 l0 99 60 0 60 0 0 -240 c0 -207 2 -240 15 -240 13 0 15
36 15 260 l0 260 -380 0 -380 0 0 -149z"/>
<path d="M158 631 c-1 -50 -2 -103 -2 -118 -1 -26 3 -28 44 -34 l45 -5 -45 -5
-45 -4 -2 -70 c0 -38 -2 -134 -2 -212 l-1 -143 -60 0 -60 0 0 215 c0 184 -2
215 -15 215 -13 0 -15 -33 -15 -235 l0 -235 380 0 380 0 0 250 c0 216 -2 250
-15 250 -13 0 -15 -32 -15 -230 l0 -230 -60 0 c-57 0 -62 2 -78 30 -9 16 -20
30 -24 30 -5 0 -8 4 -8 10 0 12 -98 168 -122 194 -10 11 -18 24 -18 29 0 5
-37 68 -82 139 -46 72 -99 155 -118 186 -52 83 -60 80 -62 -27z"/>
</g>
</svg>
